<?xml version="1.0" encoding="UTF-8"?>
<svg version="1.1" xmlns="http://www.w3.org/2000/svg" width="128" height="128">
<path d="M0 0 C1.30677472 0.33746073 2.61385417 0.67374336 3.92121887 1.00891113 C7.32559587 1.88499887 10.72565468 2.77679719 14.125 3.67218018 C17.60881338 4.58674246 21.09656041 5.48604262 24.58398438 6.38671875 C31.39970984 8.14932939 38.21098107 9.92860415 45.01953125 11.71875 C45.31017555 21.43483999 44.21528438 30.95913903 43.19140625 40.60546875 C43.04995556 41.95216109 43.04995556 41.95216109 42.90564728 43.32605934 C42.40755441 48.06801885 41.9034472 52.80929152 41.39404297 57.55004883 C40.87071601 62.4306969 40.36728714 67.31318341 39.86841965 72.19638348 C39.47939584 75.96974193 39.07599281 79.7414642 38.66867828 83.51288795 C38.476802 85.3123691 38.2902387 87.11242538 38.10921478 88.91303062 C37.85458669 91.43178737 37.57964546 93.94755968 37.29980469 96.46362305 C37.23002914 97.19885696 37.1602536 97.93409088 37.08836365 98.69160461 C36.39597202 104.60356717 34.46395379 109.2794628 30.16015625 113.57421875 C19.69039994 120.95063797 8.56332047 125.80182811 -4.484375 125.6875 C-11.43311435 123.76203926 -15.11218174 117.46591927 -18.98046875 111.71875 C-21.14147057 112.79674395 -23.29927594 113.88042 -25.453125 114.97265625 C-26.30777344 115.40449219 -27.16242187 115.83632812 -28.04296875 116.28125 C-28.90019531 116.71566406 -29.75742187 117.15007812 -30.640625 117.59765625 C-38.25135033 121.24419743 -48.47941753 120.90297854 -56.55859375 118.77734375 C-67.71165955 114.3077106 -73.26566701 107.65304659 -78.85546875 97.21875 C-82.16780593 87.24183078 -80.93740169 75.45149888 -76.390625 66.16796875 C-72.24339413 58.96488355 -66.39743935 54.4272353 -58.98046875 50.71875 C-58.65046875 34.54875 -58.32046875 18.37875 -57.98046875 1.71875 C-50.79215141 0.28108653 -43.78522745 -0.95676324 -36.54296875 -1.90625 C-35.1034082 -2.10734375 -35.1034082 -2.10734375 -33.63476562 -2.3125 C-32.67763672 -2.43882813 -31.72050781 -2.56515625 -30.734375 -2.6953125 C-29.47089233 -2.86474365 -29.47089233 -2.86474365 -28.18188477 -3.03759766 C-18.15980471 -3.80035491 -9.72029471 -2.58498008 0 0 Z " fill="#72759A" transform="translate(82.98046875,3.28125)"/>
<path d="M0 0 C0.99990967 0.26192139 1.99981934 0.52384277 3.0300293 0.79370117 C5.22693069 1.36956852 7.42243518 1.9507847 9.61669922 2.53662109 C13.6050185 3.59413405 17.6001024 4.62261859 21.59765625 5.64453125 C27.07284052 7.04606745 32.54761756 8.44901915 38.01953125 9.86328125 C39.14979736 10.15501221 40.28006348 10.44674316 41.44458008 10.74731445 C43.39694029 11.2711267 45.33232414 11.86077471 47.25 12.5 C46.69888089 16.35783375 45.13994679 17.9622504 42.25 20.5 C39.33203125 22.1328125 39.33203125 22.1328125 36.0625 23.625 C34.99644531 24.12257813 33.93039063 24.62015625 32.83203125 25.1328125 C24.96568126 28.13523616 17.69186 28.79938183 9.3125 28.6875 C8.36826172 28.68685547 7.42402344 28.68621094 6.45117188 28.68554688 C-0.46805883 28.64097059 -0.46805883 28.64097059 -2.75 27.5 C-2.75 56.87 -2.75 86.24 -2.75 116.5 C17.35583671 114.37081894 17.35583671 114.37081894 33.953125 103.5546875 C35.11161899 101.91015867 36.19000177 100.20967457 37.25 98.5 C37.58 98.5 37.91 98.5 38.25 98.5 C37.8272666 103.88985081 36.87185035 106.52159444 33.25 110.5 C26.07277761 116.26334552 18.20495645 119.59103922 9.25 121.5 C8.22519531 121.72945313 7.20039062 121.95890625 6.14453125 122.1953125 C2.68139646 122.61644403 0.56789387 122.63090017 -2.75 121.5 C-7.19582554 117.88520814 -10.49397926 113.16610846 -13.75 108.5 C-12.48342019 105.1479818 -11.0229881 102.13625768 -9.1875 99.0625 C-7.16795746 95.44514292 -6.00171769 92.69529476 -5.75 88.5 C-5.69972656 87.69949219 -5.64945313 86.89898437 -5.59765625 86.07421875 C-5.34982908 79.06566637 -6.66854348 73.15419001 -8.75 66.5 C-9.09335662 65.16921259 -9.43055002 63.83672757 -9.75 62.5 C-10.41 62.5 -11.07 62.5 -11.75 62.5 C-12.554375 61.46875 -13.35875 60.4375 -14.1875 59.375 C-19.55562363 52.88576948 -26.60191661 49.8580139 -34.75 48.5 C-40.36 48.5 -45.97 48.5 -51.75 48.5 C-52.08 32.99 -52.41 17.48 -52.75 1.5 C-45.4178125 0.51 -45.4178125 0.51 -37.9375 -0.5 C-36.41922607 -0.70882813 -34.90095215 -0.91765625 -33.33666992 -1.1328125 C-21.59028292 -2.68229337 -11.50550793 -3.14945232 0 0 Z " fill="#ACAFD5" transform="translate(78.75,4.5)"/>
<path d="M0 0 C4.35702941 3.068444 6.93035402 6.20389714 9.73828125 10.67578125 C10.72828125 11.00578125 11.71828125 11.33578125 12.73828125 11.67578125 C17.01534186 19.24288848 17.4870776 27.38736329 15.67578125 35.80078125 C12.97804849 45.18208617 8.04693357 51.61365789 -0.26171875 56.67578125 C-0.9165625 57.08957031 -1.57140625 57.50335938 -2.24609375 57.9296875 C-9.6988822 61.95027074 -18.84293239 62.07977539 -26.9453125 59.98046875 C-29.21095123 59.04594186 -31.19106405 57.98420676 -33.26171875 56.67578125 C-34.30585937 56.03962891 -34.30585937 56.03962891 -35.37109375 55.390625 C-43.32272602 50.02476788 -48.27184572 42.023168 -50.26171875 32.67578125 C-50.95028466 27.00330972 -50.23090997 21.04127417 -48.26171875 15.67578125 C-46.38671875 14.05078125 -46.38671875 14.05078125 -44.26171875 12.67578125 C-43.31995325 10.95462361 -42.37826323 9.23342443 -41.4375 7.51171875 C-32.63875991 -6.22717774 -13.22945982 -7.7457459 0 0 Z " fill="#51CD37" transform="translate(55.26171875,60.32421875)"/>
<path d="M0 0 C0.99990967 0.26192139 1.99981934 0.52384277 3.0300293 0.79370117 C5.22693069 1.36956852 7.42243518 1.9507847 9.61669922 2.53662109 C13.6050185 3.59413405 17.6001024 4.62261859 21.59765625 5.64453125 C27.07284052 7.04606745 32.54761756 8.44901915 38.01953125 9.86328125 C39.14979736 10.15501221 40.28006348 10.44674316 41.44458008 10.74731445 C43.39694029 11.2711267 45.33232414 11.86077471 47.25 12.5 C46.69888089 16.35783375 45.13994679 17.9622504 42.25 20.5 C39.33203125 22.1328125 39.33203125 22.1328125 36.0625 23.625 C34.99644531 24.12257813 33.93039063 24.62015625 32.83203125 25.1328125 C24.96568126 28.13523616 17.69186 28.79938183 9.3125 28.6875 C8.36826172 28.68685547 7.42402344 28.68621094 6.45117188 28.68554688 C-0.46805883 28.64097059 -0.46805883 28.64097059 -2.75 27.5 C-2.75 36.41 -2.75 45.32 -2.75 54.5 C-3.08 54.5 -3.41 54.5 -3.75 54.5 C-3.75 45.59 -3.75 36.68 -3.75 27.5 C-5.73 26.84 -7.71 26.18 -9.75 25.5 C-12.669738 24.28293525 -15.51806559 22.91989918 -18.375 21.5625 C-19.19097656 21.17642578 -20.00695312 20.79035156 -20.84765625 20.39257812 C-28.16255683 16.87986711 -35.26820324 13.0224374 -42.33837891 9.04321289 C-43.13421387 8.59582764 -43.93004883 8.14844238 -44.75 7.6875 C-45.45125 7.28917969 -46.1525 6.89085937 -46.875 6.48046875 C-48.88249565 5.36729074 -48.88249565 5.36729074 -51.75 4.5 C-51.42 3.51 -51.09 2.52 -50.75 1.5 C-46.82277755 0.92030204 -42.89417154 0.35115995 -38.96411133 -0.20898438 C-36.98376342 -0.4933567 -35.00455764 -0.785647 -33.02539062 -1.078125 C-21.27860868 -2.74349155 -11.47109277 -3.14003171 0 0 Z " fill="#DFE4FB" transform="translate(78.75,4.5)"/>
<path d="M0 0 C-0.54683515 6.13098702 -1.10535796 12.26080261 -1.67041016 18.39013672 C-1.90259697 20.93318426 -2.13175866 23.47635434 -2.35693359 26.02001953 C-2.6674612 29.52685804 -2.98621138 33.03287456 -3.30966187 36.5385437 C-3.43624088 37.92608274 -3.55997385 39.31388444 -3.68081665 40.70193481 C-3.85258508 42.66915055 -4.03546555 44.63538628 -4.21875 46.6015625 C-4.32123047 47.73932129 -4.42371094 48.87708008 -4.52929688 50.04931641 C-4.96716163 52.79414702 -5.59129305 54.63021936 -7 57 C-7.33 56.34 -7.66 55.68 -8 55 C-8.62003906 55.29132813 -9.24007812 55.58265625 -9.87890625 55.8828125 C-15.54968431 58.50771414 -21.26778587 60.97670049 -27.0625 63.3125 C-27.71742432 63.57885254 -28.37234863 63.84520508 -29.04711914 64.11962891 C-33.75792407 66 -33.75792407 66 -36 66 C-36.33 51.81 -36.66 37.62 -37 23 C-37.33 23 -37.66 23 -38 23 C-38 17.72 -38 12.44 -38 7 C-36.29457031 6.96132813 -36.29457031 6.96132813 -34.5546875 6.921875 C-23.8601393 6.56957579 -13.5003592 5.7501796 -3.7421875 0.87109375 C-2 0 -2 0 0 0 Z " fill="#F2F2F7" transform="translate(120,37)"/>
<path d="M0 0 C7.07953685 5.63144977 12.9597927 12.30204946 19 19 C19.84175781 19.92683594 20.68351562 20.85367188 21.55078125 21.80859375 C27 27.85790409 27 27.85790409 27 29 C21.06 29 15.12 29 9 29 C9 37.25 9 45.5 9 54 C3.39 54 -2.22 54 -8 54 C-8 45.75 -8 37.5 -8 29 C-13.94 29 -19.88 29 -26 29 C-21.94658748 23.23988747 -17.50272406 18.38509852 -12.46875 13.46484375 C-9.65482371 10.65536987 -7.04613287 7.72014163 -4.47265625 4.69140625 C-3.04541597 3.05216211 -1.55487662 1.51774524 0 0 Z " fill="#FEFEFE" transform="translate(38,61)"/>
<path d="M0 0 C-0.54683515 6.13098702 -1.10535796 12.26080261 -1.67041016 18.39013672 C-1.90259697 20.93318426 -2.13175866 23.47635434 -2.35693359 26.02001953 C-2.6674612 29.52685804 -2.98621138 33.03287456 -3.30966187 36.5385437 C-3.43624088 37.92608274 -3.55997385 39.31388444 -3.68081665 40.70193481 C-3.85258508 42.66915055 -4.03546555 44.63538628 -4.21875 46.6015625 C-4.32123047 47.73932129 -4.42371094 48.87708008 -4.52929688 50.04931641 C-4.96716163 52.79414702 -5.59129305 54.63021936 -7 57 C-7.33 56.34 -7.66 55.68 -8 55 C-8.62003906 55.29132813 -9.24007812 55.58265625 -9.87890625 55.8828125 C-15.54968431 58.50771414 -21.26778587 60.97670049 -27.0625 63.3125 C-27.71742432 63.57885254 -28.37234863 63.84520508 -29.04711914 64.11962891 C-33.75792407 66 -33.75792407 66 -36 66 C-36.33 51.81 -36.66 37.62 -37 23 C-37.33 23 -37.66 23 -38 23 C-38 17.72 -38 12.44 -38 7 C-34.7 7 -31.4 7 -28 7 C-28 7.33 -28 7.66 -28 8 C-30.31 8 -32.62 8 -35 8 C-35 19.55 -35 31.1 -35 43 C-26.20323934 40.04136821 -26.20323934 40.04136821 -17.40869141 37.07617188 C-16.31733887 36.71072266 -15.22598633 36.34527344 -14.1015625 35.96875 C-12.42054443 35.40317383 -12.42054443 35.40317383 -10.70556641 34.82617188 C-8 34 -8 34 -6 34 C-5.94465088 33.410979 -5.88930176 32.82195801 -5.83227539 32.21508789 C-5.57646027 29.49748485 -5.31948622 26.77999254 -5.0625 24.0625 C-4.93198242 22.67321289 -4.93198242 22.67321289 -4.79882812 21.25585938 C-4.53806298 18.50333836 -4.27083142 15.75154783 -4 13 C-3.9160498 12.1322998 -3.83209961 11.26459961 -3.74560547 10.37060547 C-3.11739418 4.23478836 -3.11739418 4.23478836 -2 2 C-2.66 1.67 -3.32 1.34 -4 1 C-2 0 -2 0 0 0 Z " fill="#8D8D9C" transform="translate(120,37)"/>
<path d="M0 0 C4.81277651 3.30765726 8.83069449 7.14376508 10.7734375 12.74609375 C12.02533816 23.86824276 12.02533816 23.86824276 8.7734375 28.74609375 C7.70029297 27.58207031 7.70029297 27.58207031 6.60546875 26.39453125 C-0.98753118 18.1619176 -8.60158554 9.94909315 -16.2265625 1.74609375 C-20.70075267 5.44592052 -24.77765676 9.24485663 -28.6640625 13.55859375 C-29.12852783 14.07196289 -29.59299316 14.58533203 -30.0715332 15.11425781 C-31.4616634 16.6536974 -32.8451794 18.19880433 -34.2265625 19.74609375 C-35.04640625 20.66261719 -35.86625 21.57914063 -36.7109375 22.5234375 C-38.55488229 24.59297128 -40.3938726 26.66659461 -42.2265625 28.74609375 C-45.49133653 23.84893271 -44.77324103 18.46891839 -44.2265625 12.74609375 C-42.28457852 6.19916571 -36.72313117 1.6733833 -30.9375 -1.515625 C-20.78335686 -6.10916594 -9.72279928 -5.47547117 0 0 Z " fill="#A0DD9B" transform="translate(55.2265625,60.25390625)"/>
<path d="M0 0 C0.97642052 3.17189717 1.00805232 5.7000401 0.6862793 8.99291992 C0.54569344 10.48048042 0.54569344 10.48048042 0.40226746 11.99809265 C0.23988335 13.59811882 0.23988335 13.59811882 0.07421875 15.23046875 C-0.03343307 16.33546219 -0.1410849 17.44045563 -0.2519989 18.57893372 C-0.48163295 20.9185942 -0.71469879 23.25792001 -0.95092773 25.59692383 C-1.30928386 29.15556224 -1.65449222 32.71529631 -1.99804688 36.27539062 C-2.22316786 38.55216163 -2.44905492 40.82885705 -2.67578125 43.10546875 C-2.77796463 44.16203171 -2.88014801 45.21859467 -2.98542786 46.30717468 C-4.59729021 62.04562497 -4.59729021 62.04562497 -7.62890625 66.26953125 C-17.03197631 73.7729912 -24.78140627 76.30859161 -37 75 C-38.32 74.34 -39.64 73.68 -41 73 C-41 51.88 -41 30.76 -41 9 C-30.11 8.01 -30.11 8.01 -19 7 C-12.04696384 5.20379899 -6.33192327 3.26838981 0 0 Z M-12.73828125 7.80859375 C-18.58286209 9.94344064 -24.14986281 10.26579845 -30.3125 10.5625 C-31.14845703 10.60568359 -31.98441406 10.64886719 -32.84570312 10.69335938 C-34.89696935 10.79885307 -36.9484648 10.89987315 -39 11 C-39 16.28 -39 21.56 -39 27 C-38.67 27 -38.34 27 -38 27 C-37.67 41.19 -37.34 55.38 -37 70 C-30.74260837 67.91420279 -24.62901751 65.76978168 -18.5 63.375 C-17.69046875 63.06304687 -16.8809375 62.75109375 -16.046875 62.4296875 C-15.27859375 62.130625 -14.5103125 61.8315625 -13.71875 61.5234375 C-13.02716797 61.25450684 -12.33558594 60.98557617 -11.62304688 60.70849609 C-9.99269009 60.11441133 -9.99269009 60.11441133 -9 59 C-8.34 59.66 -7.68 60.32 -7 61 C-5.24790301 50.75742491 -4.14970382 40.48642268 -3.14013672 30.14916992 C-2.87239518 27.41085934 -2.59868999 24.67319032 -2.32421875 21.93554688 C-2.15069557 20.1849301 -1.97750609 18.43428022 -1.8046875 16.68359375 C-1.72346649 15.87006943 -1.64224548 15.0565451 -1.55856323 14.21836853 C-1.22560974 10.78802767 -1 7.45026693 -1 4 C-5.06559762 4 -9.00624641 6.31492872 -12.73828125 7.80859375 Z " fill="#0C0C11" transform="translate(121,33)"/>
<path d="M0 0 C2.84404501 1.98546538 5.05729024 3.92577953 7.27734375 6.58984375 C7.27734375 7.24984375 7.27734375 7.90984375 7.27734375 8.58984375 C7.93734375 8.58984375 8.59734375 8.58984375 9.27734375 8.58984375 C14.46307329 17.78272794 15.69611739 28.30834656 13.65234375 38.65234375 C10.97342639 47.79438342 4.86622913 56.17055673 -3.23828125 61.12890625 C-12.66765516 65.74053994 -23.17570687 66.35831409 -33.265625 63.6328125 C-44.45615095 59.25391104 -50.01775499 52.50565944 -55.59765625 42.08984375 C-58.90999343 32.11292453 -57.67958919 20.32259263 -53.1328125 11.0390625 C-48.27582854 2.60324826 -40.61635738 -3.17082089 -31.2421875 -5.9453125 C-19.57040568 -8.09871101 -9.87938792 -6.22599331 0 0 Z M-45.72265625 8.58984375 C-47.22111826 10.86274026 -48.44611388 13.17859704 -49.72265625 15.58984375 C-50.71265625 16.24984375 -51.70265625 16.90984375 -52.72265625 17.58984375 C-56.06814387 26.21297228 -55.31643936 34.51206954 -51.97265625 42.91796875 C-47.83057372 51.77167015 -40.95080001 58.07658465 -31.84765625 61.75 C-21.07088869 64.64625628 -12.20363117 62.95836123 -2.76171875 57.640625 C4.74419546 52.57558006 8.90361118 46.31073079 11.27734375 37.58984375 C12.84690214 29.41890745 12.76358152 20.87801248 8.27734375 13.58984375 C7.28734375 13.25984375 6.29734375 12.92984375 5.27734375 12.58984375 C4.72046875 11.70296875 4.16359375 10.81609375 3.58984375 9.90234375 C-0.51535596 3.45795477 -6.80676386 -0.07590429 -14.0859375 -1.9375 C-26.60631661 -4.18189389 -37.14566412 -0.96225886 -45.72265625 8.58984375 Z " fill="#0B6D0D" transform="translate(59.72265625,58.41015625)"/>
<path d="M0 0 C5.61 0 11.22 0 17 0 C17 8.25 17 16.5 17 25 C22.61 25 28.22 25 34 25 C34 16.75 34 8.5 34 0 C39.61 0 45.22 0 51 0 C48.24206083 4.59656529 45.51171769 8.02005328 42 12 C44.97 12.33 47.94 12.66 51 13 C48.08956779 18.82086443 43.40892711 23.19351817 37.4375 25.9375 C28.66065562 28.70731282 18.37457882 28.1180414 10.08984375 24.203125 C5.18576247 21.37984082 1.62359697 18.68258939 0 13 C3.3 12.67 6.6 12.34 10 12 C9.278125 11.29875 8.55625 10.5975 7.8125 9.875 C5.00254432 7.06504432 2.47396459 4.11012691 0 1 C0 0.67 0 0.34 0 0 Z " fill="#7FDE68" transform="translate(13,90)"/>
<path d="M0 0 C1.30677472 0.33746073 2.61385417 0.67374336 3.92121887 1.00891113 C7.32559587 1.88499887 10.72565468 2.77679719 14.125 3.67218018 C17.60881338 4.58674246 21.09656041 5.48604262 24.58398438 6.38671875 C31.39970984 8.14932939 38.21098107 9.92860415 45.01953125 11.71875 C45.31017555 21.43483999 44.21528438 30.95913903 43.19140625 40.60546875 C43.04995556 41.95216109 43.04995556 41.95216109 42.90564728 43.32605934 C42.40755441 48.06801885 41.9034472 52.80929152 41.39404297 57.55004883 C40.87071601 62.4306969 40.36728714 67.31318341 39.86841965 72.19638348 C39.47939584 75.96974193 39.07599281 79.7414642 38.66867828 83.51288795 C38.476802 85.3123691 38.2902387 87.11242538 38.10921478 88.91303062 C37.85458669 91.43178737 37.57964546 93.94755968 37.29980469 96.46362305 C37.23002914 97.19885696 37.1602536 97.93409088 37.08836365 98.69160461 C36.39597202 104.60356717 34.46395379 109.2794628 30.16015625 113.57421875 C19.75533297 120.90488969 8.5537981 125.85347025 -4.41796875 125.75390625 C-11.7217849 123.63163511 -15.79785113 116.72455992 -19.98046875 110.71875 C-19.32046875 110.05875 -18.66046875 109.39875 -17.98046875 108.71875 C-16.51974343 110.32073888 -15.06197159 111.92542116 -13.60546875 113.53125 C-12.79335937 114.42457031 -11.98125 115.31789063 -11.14453125 116.23828125 C-8.98046875 118.71875 -8.98046875 118.71875 -6.98046875 121.71875 C3.20245059 123.80043709 14.2588819 119.93621192 23.08984375 115.00390625 C27.56771466 112.02083481 30.58846322 109.59150207 33.01953125 104.71875 C33.55246853 101.86184489 33.94507642 99.13840558 34.23046875 96.2578125 C34.37040504 94.99325729 34.37040504 94.99325729 34.51316833 93.70315552 C34.81847709 90.91780002 35.10656509 88.13094735 35.39453125 85.34375 C35.6040157 83.40125408 35.81456361 81.45887259 36.02612305 79.51660156 C36.58721936 74.33734829 37.13337461 69.15662058 37.67657471 63.97546387 C38.26021187 58.43324782 38.85749311 52.8924999 39.453125 47.3515625 C40.65587794 36.14208432 41.84244702 24.93095041 43.01953125 13.71875 C42.3030542 13.59612793 41.58657715 13.47350586 40.84838867 13.34716797 C35.58028699 12.42194739 30.45700494 11.39989007 25.33203125 9.84375 C18.30545398 7.77710963 11.23692446 5.96117302 4.12109375 4.23632812 C1.94708047 3.70090664 -0.21963341 3.14088044 -2.38671875 2.578125 C-3.85535278 2.20787302 -5.32409992 1.83806936 -6.79296875 1.46875 C-7.44950439 1.2934375 -8.10604004 1.118125 -8.7824707 0.9375 C-18.4162653 -1.43418985 -27.97651691 -0.21272193 -37.66796875 1.21875 C-44.17151013 2.16798484 -50.40187815 2.90604084 -56.98046875 2.71875 C-56.90900635 3.37327148 -56.83754395 4.02779297 -56.76391602 4.70214844 C-55.84701142 14.13545511 -55.86674812 23.50356361 -55.91796875 32.96875 C-55.92299726 34.60025903 -55.92755776 36.23176958 -55.93164062 37.86328125 C-55.94253118 41.8151423 -55.95972009 45.76692892 -55.98046875 49.71875 C-55.32046875 50.04875 -54.66046875 50.37875 -53.98046875 50.71875 C-55.30046875 50.71875 -56.62046875 50.71875 -57.98046875 50.71875 C-57.98046875 34.54875 -57.98046875 18.37875 -57.98046875 1.71875 C-50.79215141 0.28108653 -43.78522745 -0.95676324 -36.54296875 -1.90625 C-35.1034082 -2.10734375 -35.1034082 -2.10734375 -33.63476562 -2.3125 C-32.67763672 -2.43882813 -31.72050781 -2.56515625 -30.734375 -2.6953125 C-29.47089233 -2.86474365 -29.47089233 -2.86474365 -28.18188477 -3.03759766 C-18.15980471 -3.80035491 -9.72029471 -2.58498008 0 0 Z " fill="#414253" transform="translate(82.98046875,3.28125)"/>
<path d="M0 0 C0.33 0 0.66 0 1 0 C2.10233444 10.09624014 2.11736516 20.11133216 2.0625 30.25 C2.05747149 31.88150903 2.05291099 33.51301958 2.04882812 35.14453125 C2.03793757 39.0963923 2.02074866 43.04817892 2 47 C4.38979316 46.69606733 6.77897319 46.38821426 9.16796875 46.078125 C9.8388855 45.99320801 10.50980225 45.90829102 11.2010498 45.82080078 C21.10387184 44.52663045 31.84080188 41.89284556 38.703125 34.0546875 C39.86161899 32.41015867 40.94000177 30.70967457 42 29 C42.33 29 42.66 29 43 29 C42.5772666 34.38985081 41.62185035 37.02159444 38 41 C30.82277761 46.76334552 22.95495645 50.09103922 14 52 C12.46279297 52.34417969 12.46279297 52.34417969 10.89453125 52.6953125 C7.43139646 53.11644403 5.31789387 53.13090017 2 52 C-2.44582554 48.38520814 -5.74397926 43.66610846 -9 39 C-7.73342019 35.6479818 -6.2729881 32.63625768 -4.4375 29.5625 C-0.13387666 21.85395113 -0.11579774 13.03995289 -1.625 4.4375 C-1.74875 3.633125 -1.8725 2.82875 -2 2 C-1.34 1.34 -0.68 0.68 0 0 Z " fill="#7B7CA6" transform="translate(74,74)"/>
<path d="M0 0 C0.66 0 1.32 0 2 0 C1.85888117 2.75031587 1.71228835 5.50015418 1.5625 8.25 C1.52318359 9.02730469 1.48386719 9.80460937 1.44335938 10.60546875 C1.40146484 11.35957031 1.35957031 12.11367188 1.31640625 12.890625 C1.27974854 13.58188477 1.24309082 14.27314453 1.20532227 14.98535156 C1.13756592 15.65018555 1.06980957 16.31501953 1 17 C0.94561768 17.69609375 0.89123535 18.3921875 0.83520508 19.109375 C0 21 0 21 -2.45263672 22.28027344 C-3.51756348 22.63637695 -4.58249023 22.99248047 -5.6796875 23.359375 C-6.83597656 23.75253906 -7.99226563 24.14570312 -9.18359375 24.55078125 C-10.40175781 24.94652344 -11.61992188 25.34226562 -12.875 25.75 C-14.08542969 26.16121094 -15.29585937 26.57242188 -16.54296875 26.99609375 C-25.51476848 30 -25.51476848 30 -29 30 C-29 25.71 -29 21.42 -29 17 C-24.91887222 15.65957094 -20.83536227 14.3274064 -16.75 13 C-15.59113281 12.6184375 -14.43226562 12.236875 -13.23828125 11.84375 C-12.12324219 11.4828125 -11.00820312 11.121875 -9.859375 10.75 C-8.83295898 10.41484375 -7.80654297 10.0796875 -6.74902344 9.734375 C-4 9 -4 9 0 9 C0 6.03 0 3.06 0 0 Z " fill="#DEDFEB" transform="translate(114,50)"/>
<path d="M0 0 C-3 2 -3 2 -6.625 3.25 C-15.40194102 6.50908472 -21.92556321 11.44629456 -26 20 C-29.90894247 31.23820959 -30.09201665 40.13385856 -25 51 C-20.88770253 58.26214234 -14.89063717 63.05852453 -7.15625 66.12890625 C3.6822021 69.12021172 12.50332127 67.29229952 22.01953125 62.0234375 C25.86138357 59.41520748 28.2639806 56.72402641 31 53 C31.66 53 32.32 53 33 53 C31.28341011 59.29416293 26.86962977 63.23305204 21.46875 66.55859375 C12.02635051 71.13711988 1.54888206 71.7689924 -8.54296875 69.04296875 C-19.7334947 64.66406729 -25.29509874 57.91581569 -30.875 47.5 C-34.18733718 37.52308078 -32.95693294 25.73274888 -28.41015625 16.44921875 C-23.96802365 8.7339358 -17.66667929 3.7401177 -9.3125 0.625 C-6.11446594 0.02159735 -3.24527158 -0.15830593 0 0 Z " fill="#026902" transform="translate(35,53)"/>
<path d="M0 0 C-0.55111911 3.85783375 -2.11005321 5.4622504 -5 8 C-7.91796875 9.6328125 -7.91796875 9.6328125 -11.1875 11.125 C-12.25355469 11.62257813 -13.31960937 12.12015625 -14.41796875 12.6328125 C-22.34711002 15.6592023 -29.61765572 16.27779468 -38.0625 16.125 C-39.02349609 16.11597656 -39.98449219 16.10695313 -40.97460938 16.09765625 C-43.31667805 16.07435208 -45.65819792 16.04164058 -48 16 C-48.33 15.34 -48.66 14.68 -49 14 C-37.51605247 10.29089893 -25.9392141 6.94994314 -14.32324219 3.6796875 C-13.14665039 3.34710937 -11.97005859 3.01453125 -10.7578125 2.671875 C-9.6970752 2.3737793 -8.63633789 2.07568359 -7.54345703 1.76855469 C-1.6905972 0 -1.6905972 0 0 0 Z " fill="#EEF3FC" transform="translate(126,17)"/>
<path d="M0 0 C1.20284637 0.30362961 2.40569275 0.60725922 3.64498901 0.92008972 C6.16601422 1.56014886 8.68538473 2.20675797 11.203125 2.85961914 C13.78686373 3.52766366 16.37097912 4.18838426 18.95996094 4.83520508 C22.70612798 5.77221972 26.44733986 6.72682092 30.1875 7.6875 C31.35088898 7.97824905 32.51427795 8.26899811 33.71292114 8.56855774 C34.77848236 8.84862167 35.84404358 9.12868561 36.94189453 9.41723633 C38.35439987 9.78030632 38.35439987 9.78030632 39.79544067 10.15071106 C40.49974213 10.4451561 41.20404358 10.73960114 41.9296875 11.04296875 C42.4246875 12.52796875 42.4246875 12.52796875 42.9296875 14.04296875 C33.92039172 12.13674659 24.97434312 10.13437918 16.1171875 7.60546875 C9.43309776 5.71389871 2.73336475 3.90839845 -4.0078125 2.23046875 C-5.26718628 1.90187866 -5.26718628 1.90187866 -6.55200195 1.56665039 C-16.78490679 -0.92944998 -26.4389017 0.01881825 -36.7578125 1.54296875 C-43.26135388 2.49220359 -49.4917219 3.23025959 -56.0703125 3.04296875 C-55.9988501 3.69749023 -55.9273877 4.35201172 -55.85375977 5.02636719 C-54.93685517 14.45967386 -54.95659187 23.82778236 -55.0078125 33.29296875 C-55.01284101 34.92447778 -55.01740151 36.55598833 -55.02148438 38.1875 C-55.03237493 42.13936105 -55.04956384 46.09114767 -55.0703125 50.04296875 C-54.4103125 50.37296875 -53.7503125 50.70296875 -53.0703125 51.04296875 C-54.3903125 51.04296875 -55.7103125 51.04296875 -57.0703125 51.04296875 C-57.0703125 34.87296875 -57.0703125 18.70296875 -57.0703125 2.04296875 C-49.88199516 0.60530528 -42.8750712 -0.63254449 -35.6328125 -1.58203125 C-34.19325195 -1.783125 -34.19325195 -1.783125 -32.72460938 -1.98828125 C-31.76748047 -2.11460938 -30.81035156 -2.2409375 -29.82421875 -2.37109375 C-28.56073608 -2.5405249 -28.56073608 -2.5405249 -27.27172852 -2.71337891 C-17.62228227 -3.44777587 -9.36938933 -2.43279238 0 0 Z " fill="#494A5B" transform="translate(82.0703125,2.95703125)"/>
<path d="M0 0 C0.33 0.99 0.66 1.98 1 3 C1.66 3 2.32 3 3 3 C2.47968319 16.04380421 1.07439193 28.91878816 -0.60595703 41.86083984 C-0.98751983 44.90057619 -1.32478228 47.94231286 -1.65234375 50.98828125 C-1.87149567 52.84646055 -2.09150464 54.70453904 -2.3125 56.5625 C-2.3935498 57.40006836 -2.47459961 58.23763672 -2.55810547 59.10058594 C-3.46892735 66.27349041 -6.64374781 71.01408163 -12.0090332 75.78735352 C-12.66605225 76.18752686 -13.32307129 76.5877002 -14 77 C-14.99 76.67 -15.98 76.34 -17 76 C-17 74.68 -17 73.36 -17 72 C-17.99 72 -18.98 72 -20 72 C-20.33 71.01 -20.66 70.02 -21 69 C-20.33613281 68.70867187 -19.67226562 68.41734375 -18.98828125 68.1171875 C-18.10527344 67.70726563 -17.22226563 67.29734375 -16.3125 66.875 C-15.00732422 66.28332031 -15.00732422 66.28332031 -13.67578125 65.6796875 C-9.64679751 63.15054442 -6.6704479 60.40035929 -5.376297 55.76699829 C-4.96074134 53.10387055 -4.68348665 50.45894199 -4.453125 47.7734375 C-4.35159119 46.7893692 -4.25005737 45.8053009 -4.14544678 44.79141235 C-3.82666707 41.65424133 -3.53801005 38.51512966 -3.25 35.375 C-3.04232559 33.28756439 -2.83270866 31.20032107 -2.62109375 29.11328125 C-1.64931624 19.41803845 -0.75236044 9.71491989 0 0 Z " fill="#5F6287" transform="translate(121,37)"/>
<path d="M0 0 C1.04192845 3.12578536 1.14985364 5.08113491 0.15917969 8.23486328 C-2.44928621 12.20689539 -7.59687971 13.37465428 -11.875 14.9375 C-12.88175781 15.33517578 -13.88851562 15.73285156 -14.92578125 16.14257812 C-19.22326318 17.80050442 -22.34529468 19 -27 19 C-27 16.03 -27 13.06 -27 10 C-18.11362137 6.33260564 -9.0761224 3.1587433 0 0 Z " fill="#D9DDF5" transform="translate(112,83)"/>
<path d="M0 0 C-0.33 2.97 -0.66 5.94 -1 9 C-5.28993333 10.50499009 -9.58222158 12.00314637 -13.875 13.5 C-15.09832031 13.92925781 -16.32164063 14.35851562 -17.58203125 14.80078125 C-18.74863281 15.20683594 -19.91523437 15.61289063 -21.1171875 16.03125 C-22.19597168 16.40830078 -23.27475586 16.78535156 -24.38623047 17.17382812 C-27 18 -27 18 -29 18 C-29 15.03 -29 12.06 -29 9 C-24.73178646 7.49247107 -20.46002191 5.99527041 -16.1875 4.5 C-14.97255859 4.07074219 -13.75761719 3.64148438 -12.50585938 3.19921875 C-11.34248047 2.79316406 -10.17910156 2.38710937 -8.98046875 1.96875 C-7.90692139 1.59169922 -6.83337402 1.21464844 -5.72729492 0.82617188 C-3 0 -3 0 0 0 Z " fill="#D6D8EF" transform="translate(114,73)"/>
<path d="M0 0 C-0.33 2.31 -0.66 4.62 -1 7 C-10.9 9.97 -20.8 12.94 -31 16 C-31 12.37 -31 8.74 -31 5 C-29.62585938 4.80664062 -28.25171875 4.61328125 -26.8359375 4.4140625 C-25.01558322 4.15133095 -23.19527301 3.88829401 -21.375 3.625 C-20.47136719 3.49867187 -19.56773438 3.37234375 -18.63671875 3.2421875 C-12.37260679 2.3277186 -6.29041404 -0.37002436 0 0 Z " fill="#FBFBFB" transform="translate(116,40)"/>
<path d="M0 0 C5.28 0 10.56 0 16 0 C13.24206083 4.59656529 10.51171769 8.02005328 7 12 C9.97 12.33 12.94 12.66 16 13 C14 17 14 17 11 19 C8.5546875 18.79296875 8.5546875 18.79296875 5.875 18.1875 C4.98554687 17.99542969 4.09609375 17.80335937 3.1796875 17.60546875 C1 17 1 17 0 16 C-0.07325436 13.3013095 -0.09222351 10.63497444 -0.0625 7.9375 C-0.041875 5.318125 -0.02125 2.69875 0 0 Z " fill="#7BDD64" transform="translate(48,90)"/>
<path d="M0 0 C0.33 0 0.66 0 1 0 C0.5772666 5.38985081 -0.37814965 8.02159444 -4 12 C-14.2504879 20.23119312 -25.93559349 23.94252231 -39 23 C-39 21.35 -39 19.7 -39 18 C-38.10539062 17.89042969 -37.21078125 17.78085938 -36.2890625 17.66796875 C-24.68932773 16.14689479 -11.4899967 14.41288614 -3.296875 5.0546875 C-2.13838101 3.41015867 -1.05999823 1.70967457 0 0 Z " fill="#B4B6D7" transform="translate(116,103)"/>
<path d="M0 0 C0.33 0 0.66 0 1 0 C1 8.25 1 16.5 1 25 C6.61 25 12.22 25 18 25 C18 16.75 18 8.5 18 0 C18.33 0 18.66 0 19 0 C19.495 7.92 19.495 7.92 20 16 C23.3 16.66 26.6 17.32 30 18 C27.73919523 22.52160954 27.73919523 22.52160954 24.625 24.1875 C24.03976563 24.51105469 23.45453125 24.83460937 22.8515625 25.16796875 C15.96876236 28.26087261 6.49249723 28.09294133 -0.76171875 26.328125 C-2.9375 25.5 -2.9375 25.5 -6 24 C-6 23.01 -6 22.02 -6 21 C-4.02 20.67 -2.04 20.34 0 20 C0 13.4 0 6.8 0 0 Z " fill="#B6F59D" transform="translate(29,90)"/>
<path d="M0 0 C0.66 0.33 1.32 0.66 2 1 C2.4190705 6.97175469 1.98114017 11.24723435 -2 16 C-11.76127351 25.00542269 -25.18723416 30.13685785 -38.4375 30.03515625 C-45.74131615 27.91288511 -49.81738238 21.00580992 -54 15 C-53.34 14.34 -52.68 13.68 -52 13 C-50.53927468 14.60198888 -49.08150284 16.20667116 -47.625 17.8125 C-46.81289062 18.70582031 -46.00078125 19.59914063 -45.1640625 20.51953125 C-43 23 -43 23 -41 26 C-30.81708066 28.08168709 -19.76064935 24.21746192 -10.9296875 19.28515625 C-5.83964475 15.89426771 -1.7959988 12.82200951 -0.48828125 6.54296875 C-0.40126953 5.37701172 -0.40126953 5.37701172 -0.3125 4.1875 C-0.24675781 3.39730469 -0.18101563 2.60710937 -0.11328125 1.79296875 C-0.07589844 1.20128906 -0.03851563 0.60960938 0 0 Z " fill="#464658" transform="translate(117,99)"/>
<path d="M0 0 C0.33 0 0.66 0 1 0 C1.46225747 3.30183908 1.80169956 5.87398832 -0.20703125 8.6953125 C-6.65410843 14.70453198 -14.58906853 16.34684428 -23.1875 16.30078125 C-25 16 -25 16 -27 14 C-19.25867038 10.31304923 -11.58747408 6.99635761 -3.484375 4.17578125 C-2.66453125 3.78777344 -1.8446875 3.39976563 -1 3 C-0.67 2.01 -0.34 1.02 0 0 Z " fill="#252526" transform="translate(112,89)"/>
<path d="M0 0 C4.65524819 3.25169958 7.66095364 6.87893147 10.7109375 11.64453125 C9.7209375 11.97453125 8.7309375 12.30453125 7.7109375 12.64453125 C7.370625 12.12503906 7.0303125 11.60554688 6.6796875 11.0703125 C1.8678175 4.14685061 -3.69816033 -0.37726342 -12.09765625 -2.0703125 C-21.55702918 -3.30121129 -29.22262359 -2.28354605 -37.328125 2.96484375 C-41.88783922 6.51559993 -44.01764723 10.37484781 -46.2890625 15.64453125 C-47.2790625 15.64453125 -48.2690625 15.64453125 -49.2890625 15.64453125 C-47.70517287 8.60502177 -43.46835217 3.723643 -37.5234375 -0.1640625 C-24.99875515 -7.14640547 -12.60158868 -7.46203289 0 0 Z " fill="#12A00E" transform="translate(57.2890625,59.35546875)"/>
<path d="M0 0 C0.33 0.99 0.66 1.98 1 3 C1.66 3 2.32 3 3 3 C2.51590201 15.13583585 1.23614564 27.10447226 -0.28125 39.15234375 C-0.94418951 44.42707431 -1.50172997 49.70734641 -2 55 C-2.99 55 -3.98 55 -5 55 C-3.54135517 36.64516768 -1.81121802 18.32270255 0 0 Z " fill="#5B5D82" transform="translate(121,37)"/>
<path d="M0 0 C-0.54683515 6.13098702 -1.10535796 12.26080261 -1.67041016 18.39013672 C-1.90259697 20.93318426 -2.13175866 23.47635434 -2.35693359 26.02001953 C-2.6674612 29.52685804 -2.98621138 33.03287456 -3.30966187 36.5385437 C-3.43624088 37.92608274 -3.55997385 39.31388444 -3.68081665 40.70193481 C-3.85258508 42.66915055 -4.03546555 44.63538628 -4.21875 46.6015625 C-4.32123047 47.73932129 -4.42371094 48.87708008 -4.52929688 50.04931641 C-4.96716163 52.79414702 -5.59129305 54.63021936 -7 57 C-8.07642911 50.57990274 -7.80547547 44.89042918 -7.0390625 38.4453125 C-6.929039 37.46255341 -6.8190155 36.47979431 -6.70565796 35.46725464 C-6.47288995 33.40442582 -6.23564463 31.34209775 -5.99414062 29.28027344 C-5.62383207 26.115017 -5.26781848 22.94839497 -4.9140625 19.78125 C-4.68572439 17.7733431 -4.45658617 15.765527 -4.2265625 13.7578125 C-4.11921783 12.80891144 -4.01187317 11.86001038 -3.90127563 10.88235474 C-3.79801971 10.00739349 -3.69476379 9.13243225 -3.58837891 8.23095703 C-3.49875885 7.46010773 -3.40913879 6.68925842 -3.31680298 5.89505005 C-3 4 -3 4 -2 2 C-2.66 1.67 -3.32 1.34 -4 1 C-2 0 -2 0 0 0 Z " fill="#464749" transform="translate(120,37)"/>
<path d="M0 0 C-0.33 3.3 -0.66 6.6 -1 10 C-2.9570868 10.67031719 -4.91571113 11.33614683 -6.875 12 C-7.96554688 12.37125 -9.05609375 12.7425 -10.1796875 13.125 C-13 14 -13 14 -15 14 C-12.61971831 6.12676056 -12.61971831 6.12676056 -10 3 C-3.364 0 -3.364 0 0 0 Z " fill="#CFD1E8" transform="translate(115,61)"/>
<path d="M0 0 C0.33 0 0.66 0 1 0 C2.14383377 10.8965956 2.32487798 21.80580861 2.5625 32.75 C2.60579163 34.62240345 2.6494089 36.4947994 2.69335938 38.3671875 C2.7993255 42.91138063 2.90089116 47.45565235 3 52 C0 50 0 50 -0.39199829 48.2053833 C-0.40412857 47.12000275 -0.40412857 47.12000275 -0.41650391 46.01269531 C-0.43307037 45.19134094 -0.44963684 44.36998657 -0.46670532 43.52374268 C-0.46995819 42.63418884 -0.47321106 41.74463501 -0.4765625 40.828125 C-0.49214203 39.91295105 -0.50772156 38.9977771 -0.52377319 38.05487061 C-0.57140932 35.11992317 -0.59906717 32.18521271 -0.625 29.25 C-0.66158169 26.32924086 -0.70236149 23.40861305 -0.74765015 20.48797607 C-0.77469329 18.66940961 -0.79612295 16.85074859 -0.81118774 15.03204346 C-0.85577941 11.40825921 -0.98255873 8.0951463 -1.63818359 4.51855469 C-1.75758301 3.68743164 -1.87698242 2.85630859 -2 2 C-1.34 1.34 -0.68 0.68 0 0 Z " fill="#9294B5" transform="translate(74,74)"/>
<path d="M0 0 C0 1.65 0 3.3 0 5 C-1.98 5.33 -3.96 5.66 -6 6 C-6 6.66 -6 7.32 -6 8 C-8.4375 7.3125 -8.4375 7.3125 -11 6 C-11.8125 3.375 -11.8125 3.375 -12 1 C-7.93631321 0.22596442 -4.13574827 -0.0984702 0 0 Z " fill="#89E86B" transform="translate(29,105)"/>
<path d="M0 0 C-0.31095145 3.47930685 -0.62404912 6.95841751 -0.9375 10.4375 C-1.02451172 11.41138672 -1.11152344 12.38527344 -1.20117188 13.38867188 C-1.73211128 19.26833412 -2.32675665 25.13489806 -3 31 C-3.33 31 -3.66 31 -4 31 C-5.04001595 24.44789949 -4.9138501 18.54773209 -4.125 12 C-4.03428223 11.245979 -3.94356445 10.49195801 -3.85009766 9.71508789 C-3.1449533 4.28990661 -3.1449533 4.28990661 -2 2 C-2.66 1.67 -3.32 1.34 -4 1 C-2 0 -2 0 0 0 Z " fill="#737374" transform="translate(120,37)"/>
<path d="M0 0 C3.57641765 0.58462191 6.40536462 1.53202825 9.609375 3.21484375 C10.44597656 3.65376953 11.28257813 4.09269531 12.14453125 4.54492188 C13.00433594 5.00447266 13.86414063 5.46402344 14.75 5.9375 C15.62527344 6.39318359 16.50054687 6.84886719 17.40234375 7.31835938 C23.87184123 10.74368246 23.87184123 10.74368246 25 13 C19.85857507 12.42645459 15.82591326 9.95331908 11.375 7.5 C9.8630709 6.67507923 8.35009106 5.85208061 6.8359375 5.03125 C5.83892822 4.48307617 5.83892822 4.48307617 4.82177734 3.92382812 C2.85290644 2.86928655 2.85290644 2.86928655 0 2 C0 1.34 0 0.68 0 0 Z " fill="#EDF3FE" transform="translate(27,7)"/>
<path d="M0 0 C3.63 0.66 7.26 1.32 11 2 C9 6 9 6 6.375 7.25 C5.59125 7.4975 4.8075 7.745 4 8 C4 7.34 4 6.68 4 6 C2.68 5.67 1.36 5.34 0 5 C0 3.35 0 1.7 0 0 Z " fill="#9AEC7F" transform="translate(48,106)"/>
<path d="M0 0 C-0.60328125 0.37511719 -1.2065625 0.75023437 -1.828125 1.13671875 C-8.16753135 5.19598379 -12.48929829 8.67712001 -15 16 C-15.99 16 -16.98 16 -18 16 C-16.42896882 9.0176392 -11.8631275 4.1972839 -6.3125 -0.0625 C-3.62407665 -1.15240136 -2.69576769 -0.81156796 0 0 Z " fill="#119F0D" transform="translate(26,59)"/>
<path d="M0 0 C2.43249013 2.35647481 4.74168057 4.68757671 6.90234375 7.30078125 C10.89273421 12.32047777 10.89273421 12.32047777 16.5 15.0625 C17.325 15.041875 18.15 15.02125 19 15 C19 15.33 19 15.66 19 16 C12.13646254 16.83556108 12.13646254 16.83556108 9.21484375 14.6875 C7.5242776 12.86250329 6.00108763 10.98358009 4.5 9 C3.695625 7.99839844 3.695625 7.99839844 2.875 6.9765625 C1.56162417 5.33484271 0.27775187 3.66959578 -1 2 C-0.67 1.34 -0.34 0.68 0 0 Z " fill="#414253" transform="translate(64,112)"/>
<path d="M0 0 C0.33 0 0.66 0 1 0 C1 6.93 1 13.86 1 21 C2.32 21.33 3.64 21.66 5 22 C5 22.99 5 23.98 5 25 C2.03 25.66 -0.94 26.32 -4 27 C-3.67 26.34 -3.34 25.68 -3 25 C-2.01 25 -1.02 25 0 25 C0 16.75 0 8.5 0 0 Z " fill="#A9F091" transform="translate(47,90)"/>
<path d="M0 0 C3.36179774 1.44077046 5.59156268 3.24750021 8 6 C8 6.66 8 7.32 8 8 C8.66 8 9.32 8 10 8 C13 13.75 13 13.75 13 16 C12.01 16.33 11.02 16.66 10 17 C9.69707031 16.33613281 9.39414063 15.67226562 9.08203125 14.98828125 C6.58274978 9.72056492 4.28869248 5.92109027 0 2 C0 1.34 0 0.68 0 0 Z " fill="#146E1A" transform="translate(59,59)"/>
<path d="M0 0 C2.98313944 0.58826674 5.96048537 1.19462904 8.9375 1.8125 C9.78763672 1.97814453 10.63777344 2.14378906 11.51367188 2.31445312 C12.72700195 2.5706543 12.72700195 2.5706543 13.96484375 2.83203125 C14.7137085 2.98389893 15.46257324 3.1357666 16.23413086 3.29223633 C16.81686768 3.52579834 17.39960449 3.75936035 18 4 C18.33 4.99 18.66 5.98 19 7 C16.01686056 6.41173326 13.03951463 5.80537096 10.0625 5.1875 C9.21236328 5.02185547 8.36222656 4.85621094 7.48632812 4.68554688 C6.67744141 4.51474609 5.86855469 4.34394531 5.03515625 4.16796875 C4.2862915 4.01610107 3.53742676 3.8642334 2.76586914 3.70776367 C2.18313232 3.47420166 1.60039551 3.24063965 1 3 C0.67 2.01 0.34 1.02 0 0 Z " fill="#505163" transform="translate(106,10)"/>
<path d="M0 0 C-5.48738192 4.2069928 -11.98024513 4.36445317 -18.625 3.5625 C-19.40875 3.376875 -20.1925 3.19125 -21 3 C-21 2.67 -21 2.34 -21 2 C-19.95199219 1.86722656 -18.90398437 1.73445313 -17.82421875 1.59765625 C-16.44529222 1.41942765 -15.06638707 1.24103359 -13.6875 1.0625 C-12.65206055 0.93198242 -12.65206055 0.93198242 -11.59570312 0.79882812 C-1.53881836 -0.51293945 -1.53881836 -0.51293945 0 0 Z " fill="#525265" transform="translate(98,124)"/>
<path d="M0 0 C-2.66782556 2.66782556 -4.60604884 2.59610663 -8.3125 3.125 C-10.00826172 3.37636719 -10.00826172 3.37636719 -11.73828125 3.6328125 C-14.53427619 3.94757121 -17.19156059 4.07376764 -20 4 C-19 2 -19 2 -16.1875 0.875 C-10.89869835 -0.54124814 -5.42688321 -0.16040049 0 0 Z " fill="#059704" transform="translate(44,54)"/>
<path d="M0 0 C0.94101563 0.19078125 1.88203125 0.3815625 2.8515625 0.578125 C3.78742188 0.75859375 4.72328125 0.9390625 5.6875 1.125 C8.4123113 1.81192722 10.89708457 2.72129447 13.4765625 3.828125 C13.1465625 4.488125 12.8165625 5.148125 12.4765625 5.828125 C3.5665625 3.848125 3.5665625 3.848125 -5.5234375 1.828125 C-2.5234375 -0.171875 -2.5234375 -0.171875 0 0 Z " fill="#4E4F61" transform="translate(68.5234375,0.171875)"/>
<path d="M0 0 C0.33 0.99 0.66 1.98 1 3 C1.66 3 2.32 3 3 3 C2.67 8.61 2.34 14.22 2 20 C1.67 20 1.34 20 1 20 C0.855625 19.236875 0.71125 18.47375 0.5625 17.6875 C0.0367406 14.91827092 0.0367406 14.91827092 -1 12 C-0.91426773 9.93412885 -0.76166465 7.87053475 -0.5625 5.8125 C-0.46066406 4.72582031 -0.35882813 3.63914063 -0.25390625 2.51953125 C-0.17011719 1.68808594 -0.08632812 0.85664062 0 0 Z " fill="#555779" transform="translate(121,37)"/>
<path d="M0 0 C2.31420059 4.62840118 2.10550561 6.06774422 1 11 C-0.5625 14.4375 -0.5625 14.4375 -2 17 C-2.66 16.67 -3.32 16.34 -4 16 C-2.68 10.72 -1.36 5.44 0 0 Z " fill="#127612" transform="translate(71,90)"/>
<path d="M0 0 C1.32 0.66 2.64 1.32 4 2 C-0.70973649 3.76615118 -5.03083364 4.48594831 -10 5 C-10.33 4.01 -10.66 3.02 -11 2 C-10.28972656 1.93941406 -9.57945313 1.87882812 -8.84765625 1.81640625 C-7.46900391 1.69072266 -7.46900391 1.69072266 -6.0625 1.5625 C-5.14597656 1.48128906 -4.22945312 1.40007812 -3.28515625 1.31640625 C-1.03840268 1.23955024 -1.03840268 1.23955024 0 0 Z " fill="#70DF51" transform="translate(24,101)"/>
<path d="M0 0 C4.62 0.66 9.24 1.32 14 2 C13.01 2.99 12.02 3.98 11 5 C8.51953125 4.85546875 8.51953125 4.85546875 5.8125 4.1875 C4.91144531 3.97480469 4.01039062 3.76210937 3.08203125 3.54296875 C2.39496094 3.36378906 1.70789062 3.18460937 1 3 C0.67 2.01 0.34 1.02 0 0 Z " fill="#80E363" transform="translate(48,104)"/>
<path d="M0 0 C0 0.99 0 1.98 0 3 C-1.98 3.33 -3.96 3.66 -6 4 C-6 4.66 -6 5.32 -6 6 C-6.99 5.67 -7.98 5.34 -9 5 C-9 4.01 -9 3.02 -9 2 C-5.62902617 0.50178941 -3.79557881 0 0 0 Z " fill="#99ED7C" transform="translate(29,107)"/>
<path d="M0 0 C-0.33 0.66 -0.66 1.32 -1 2 C-3.50390625 2.6328125 -3.50390625 2.6328125 -6.5625 3.125 C-8.08037109 3.37636719 -8.08037109 3.37636719 -9.62890625 3.6328125 C-10.80259766 3.81457031 -10.80259766 3.81457031 -12 4 C-12.66 3.01 -13.32 2.02 -14 1 C-12.04310963 0.63794536 -10.08442332 0.28558579 -8.125 -0.0625 C-7.03445312 -0.25972656 -5.94390625 -0.45695312 -4.8203125 -0.66015625 C-2 -1 -2 -1 0 0 Z " fill="#1C1D21" transform="translate(109,40)"/>
<path d="M0 0 C0 1.98 0 3.96 0 6 C-1.98 5.34 -3.96 4.68 -6 4 C-6 3.01 -6 2.02 -6 1 C-3 0 -3 0 0 0 Z " fill="#A8F28C" transform="translate(29,110)"/>
<path d="M0 0 C0.66 0.33 1.32 0.66 2 1 C2 1.33 2 1.66 2 2 C4.97 2.33 7.94 2.66 11 3 C10.67 3.99 10.34 4.98 10 6 C5.71 5.01 1.42 4.02 -3 3 C-2.01 2.01 -1.02 1.02 0 0 Z " fill="#68DA4B" transform="translate(53,100)"/>
<path d="M0 0 C-0.11398665 1.62580966 -0.24155659 3.25067157 -0.375 4.875 C-0.47941406 6.23238281 -0.47941406 6.23238281 -0.5859375 7.6171875 C-1 10 -1 10 -3 12 C-3.125 4.25 -3.125 4.25 -2 2 C-2.66 1.67 -3.32 1.34 -4 1 C-2 0 -2 0 0 0 Z " fill="#999999" transform="translate(120,37)"/>
<path d="M0 0 C0 0.33 0 0.66 0 1 C-5.94 1.495 -5.94 1.495 -12 2 C-12 1.67 -12 1.34 -12 1 C-7.9472484 0.01751476 -4.16138263 -0.08159574 0 0 Z M-14 2 C-12.02 2.99 -12.02 2.99 -10 4 C-10.66 4.66 -11.32 5.32 -12 6 C-12.66 4.68 -13.32 3.36 -14 2 Z " fill="#7CE35E" transform="translate(29,104)"/>
<path d="M0 0 C3.63 0.66 7.26 1.32 11 2 C10.34 3.32 9.68 4.64 9 6 C8.67 5.01 8.34 4.02 8 3 C5.36 2.67 2.72 2.34 0 2 C0 1.34 0 0.68 0 0 Z " fill="#8DE772" transform="translate(48,106)"/>
<path d="M0 0 C0.33 0 0.66 0 1 0 C1.05447047 1.41623216 1.09300508 2.83308191 1.125 4.25 C1.14820312 5.03890625 1.17140625 5.8278125 1.1953125 6.640625 C0.9828378 9.20731941 0.28654105 10.7916067 -1 13 C-1.33 10.36 -1.66 7.72 -2 5 C-1.34 5 -0.68 5 0 5 C0 3.35 0 1.7 0 0 Z " fill="#828284" transform="translate(114,81)"/>
<path d="M0 0 C0.99 0.33 1.98 0.66 3 1 C2.01 2.98 1.02 4.96 0 7 C-0.99 7 -1.98 7 -3 7 C-1.125 1.125 -1.125 1.125 0 0 Z " fill="#1FAA16" transform="translate(11,68)"/>
<path d="M0 0 C-1.97420135 2.52259061 -2.96745642 2.9929808 -6.1875 3.6875 C-7.5796875 3.8421875 -7.5796875 3.8421875 -9 4 C-6.77642026 0.66463039 -4.04815944 -2.02407972 0 0 Z " fill="#0D0E10" transform="translate(117,37)"/>
<path d="M0 0 C0 0.66 0 1.32 0 2 C-2.64 2.33 -5.28 2.66 -8 3 C-8 2.34 -8 1.68 -8 1 C-5.07175348 0.02391783 -3.04386724 -0.08226668 0 0 Z " fill="#4C4D5E" transform="translate(55,1)"/>
</svg>
